<?xml version="1.0" standalone="no"?>
<!DOCTYPE svg PUBLIC "-//W3C//DTD SVG 20010904//EN"
 "http://www.w3.org/TR/2001/REC-SVG-20010904/DTD/svg10.dtd">
<svg version="1.0" xmlns="http://www.w3.org/2000/svg"
 width="1024.000000pt" height="1024.000000pt" viewBox="0 0 1024.000000 1024.000000"
 preserveAspectRatio="xMidYMid meet">
<metadata>
Created by potrace 1.14, written by Peter Selinger 2001-2017
</metadata>
<g transform="translate(0.000000,1024.000000) scale(0.100000,-0.100000)"
fill="#000000" stroke="none">
<path d="M3645 8585 c-134 -29 -217 -76 -320 -179 -139 -141 -203 -283 -212
-478 -9 -167 30 -294 126 -414 57 -72 174 -158 244 -178 16 -5 16 -9 -7 -53
-54 -109 -126 -357 -158 -548 -8 -51 -13 -168 -13 -320 0 -214 3 -251 23 -343
103 -461 307 -777 647 -1004 50 -33 91 -64 93 -69 2 -4 -25 -50 -61 -101 -241
-348 -467 -878 -546 -1278 -54 -273 -48 -401 27 -546 70 -136 231 -224 389
-212 l60 4 22 -195 c27 -233 81 -541 116 -665 37 -130 85 -215 163 -287 105
-98 194 -125 390 -117 102 5 125 9 182 35 113 51 172 120 210 241 10 31 25
138 35 237 9 99 20 203 23 230 l7 50 155 3 156 2 18 -216 c24 -296 46 -372
130 -462 86 -92 202 -128 383 -120 156 8 217 32 308 123 46 45 84 95 108 141
64 124 114 362 157 744 12 107 23 209 26 226 l4 30 59 -4 c208 -15 397 133
442 346 16 77 6 281 -21 404 -58 274 -184 627 -321 899 -57 114 -185 335 -241
413 -26 38 -48 73 -48 77 0 4 48 41 108 81 133 90 295 249 379 373 203 301
293 634 279 1040 -9 274 -45 457 -138 703 -28 73 -49 134 -47 135 2 2 36 18
74 37 185 92 305 296 305 519 0 128 -21 217 -76 331 -39 82 -58 107 -137 186
-70 69 -110 99 -167 127 -206 102 -435 84 -618 -47 -52 -37 -126 -131 -159
-203 l-24 -51 -122 58 c-239 113 -451 165 -722 177 -327 14 -671 -54 -939
-185 l-96 -48 -26 51 c-123 237 -373 356 -629 300z m298 -162 c107 -51 226
-183 227 -253 0 -9 -37 -41 -82 -71 l-83 -54 -35 39 c-53 59 -119 86 -210 86
-90 0 -138 -20 -204 -80 -25 -23 -58 -68 -73 -99 -24 -49 -27 -68 -27 -146 0
-90 10 -121 56 -187 22 -31 1 -30 -63 3 -89 45 -124 73 -160 132 -60 98 -47
223 40 391 68 130 169 217 306 262 25 9 77 13 140 11 89 -2 108 -6 168 -34z
m2959 -10 c118 -57 189 -128 251 -254 96 -194 88 -319 -28 -432 -44 -42 -129
-89 -155 -85 -19 3 -18 7 13 68 28 57 32 75 32 145 0 62 -5 90 -23 127 -59
120 -171 194 -293 192 -81 -1 -140 -27 -202 -91 l-44 -45 -81 63 -82 62 32 59
c58 110 120 166 237 215 49 21 69 23 156 21 94 -3 106 -6 187 -45z m-1302
-117 c274 -63 499 -165 695 -315 134 -102 309 -288 402 -426 121 -181 275
-582 302 -793 37 -279 33 -489 -15 -702 -31 -135 -38 -151 -109 -234 -305
-360 -715 -579 -1270 -677 -113 -20 -163 -23 -380 -23 -247 0 -329 7 -500 45
-58 13 -239 64 -305 86 -147 49 -388 175 -509 267 -29 23 -66 50 -81 61 -77
57 -248 236 -284 299 -62 106 -94 279 -95 521 -2 311 31 507 131 765 161 420
403 714 762 925 128 75 222 115 376 160 219 64 305 75 550 70 188 -3 230 -7
330 -29z m1340 -646 c0 -5 -5 -10 -11 -10 -5 0 -7 5 -4 10 3 6 8 10 11 10 2 0
4 -4 4 -10z m-468 -3042 c217 -382 382 -834 419 -1145 18 -148 -14 -323 -58
-323 -28 0 -88 45 -112 83 -24 40 -60 171 -96 357 -15 74 -37 167 -50 205 -33
101 -58 192 -96 345 -52 215 -87 290 -135 290 -76 0 -81 -29 -40 -203 32 -133
78 -389 90 -502 11 -99 14 -492 5 -620 -19 -282 -31 -393 -75 -688 -52 -350
-85 -461 -164 -549 -74 -84 -126 -103 -270 -102 -97 0 -123 4 -165 23 -91 41
-90 39 -34 146 64 122 90 193 145 394 50 187 64 229 105 319 40 88 39 97 -9
63 -99 -69 -263 -128 -392 -141 -231 -24 -493 -20 -675 11 -99 17 -241 74
-337 136 -39 25 -43 12 -14 -46 37 -71 58 -131 117 -331 74 -253 104 -327 174
-427 l43 -61 -22 -21 c-12 -11 -53 -32 -91 -47 -62 -23 -81 -26 -170 -22 -85
3 -109 8 -157 31 -67 33 -117 88 -157 172 -67 142 -152 670 -182 1130 -11 167
-7 495 7 635 11 114 56 369 85 482 42 169 36 221 -24 221 -70 0 -102 -67 -157
-323 -6 -30 -25 -95 -40 -145 -38 -120 -76 -271 -94 -375 -52 -296 -86 -383
-168 -426 -42 -22 -58 -17 -74 21 -89 213 27 719 283 1230 78 156 185 345 196
345 5 0 28 -20 53 -44 75 -75 324 -191 560 -261 l121 -36 49 29 c218 128 477
134 711 16 l83 -41 102 28 c92 26 168 53 268 96 181 77 249 117 306 178 21 24
41 43 44 44 3 0 44 -68 92 -151z"/>
<path d="M4350 6769 c-61 -24 -102 -88 -103 -158 -2 -144 157 -231 268 -147
103 79 90 242 -26 301 -32 17 -102 19 -139 4z"/>
<path d="M5995 6773 c-55 -15 -115 -100 -115 -163 1 -50 32 -113 74 -145 48
-37 101 -42 158 -17 164 72 130 319 -45 328 -29 2 -61 0 -72 -3z"/>
<path d="M5140 6505 c-92 -29 -145 -115 -121 -195 17 -57 55 -97 112 -117 l49
-18 0 -56 c0 -41 -5 -63 -20 -82 -40 -50 -115 -42 -127 13 -7 38 -35 55 -63
40 -30 -16 -35 -54 -12 -92 53 -85 171 -100 252 -32 28 24 29 24 39 6 14 -26
71 -52 113 -52 99 1 201 107 153 160 -30 33 -54 25 -76 -25 -16 -37 -25 -45
-53 -51 -65 -12 -109 40 -104 123 3 42 5 46 42 58 72 25 126 94 126 162 0 93
-82 163 -197 169 -42 2 -85 -2 -113 -11z m168 -39 c13 -13 14 -20 6 -34 -9
-14 -26 -17 -95 -17 -79 0 -84 1 -87 22 -2 15 5 26 25 38 36 20 127 15 151 -9z"/>
</g>
</svg>
